<?xml version="1.0" encoding="UTF-8" standalone="no"?>
<!-- Created with Inkscape (http://www.inkscape.org/) -->

<svg
   xmlns:dc="http://purl.org/dc/elements/1.1/"
   xmlns:cc="http://creativecommons.org/ns#"
   xmlns:rdf="http://www.w3.org/1999/02/22-rdf-syntax-ns#"
   xmlns:svg="http://www.w3.org/2000/svg"
   xmlns="http://www.w3.org/2000/svg"
   xmlns:sodipodi="http://sodipodi.sourceforge.net/DTD/sodipodi-0.dtd"
   xmlns:inkscape="http://www.inkscape.org/namespaces/inkscape"
   version="1.1"
   id="svg5809"
   width="384"
   height="384"
   viewBox="0 0 384 384"
   sodipodi:docname="team.svg"
   inkscape:version="0.92.1 r15371"
   inkscape:export-filename="C:\Users\tom\Pictures\team.png"
   inkscape:export-xdpi="96"
   inkscape:export-ydpi="96">
  <metadata
     id="metadata5815">
    <rdf:RDF>
      <cc:Work
         rdf:about="">
        <dc:format>image/svg+xml</dc:format>
        <dc:type
           rdf:resource="http://purl.org/dc/dcmitype/StillImage" />
        <dc:title />
      </cc:Work>
    </rdf:RDF>
  </metadata>
  <defs
     id="defs5813" />
  <sodipodi:namedview
     pagecolor="#ffffff"
     bordercolor="#666666"
     borderopacity="1"
     objecttolerance="10"
     gridtolerance="10"
     guidetolerance="10"
     inkscape:pageopacity="0"
     inkscape:pageshadow="2"
     inkscape:window-width="1920"
     inkscape:window-height="1017"
     id="namedview5811"
     showgrid="false"
     inkscape:zoom="2.18"
     inkscape:cx="42.917436"
     inkscape:cy="192"
     inkscape:window-x="3"
     inkscape:window-y="1072"
     inkscape:window-maximized="1"
     inkscape:current-layer="svg5809" />
  <ellipse
     style="fill:#305f82;fill-opacity:1;stroke:none;stroke-width:1.01047146"
     id="path5819"
     cx="192.66055"
     cy="106.2477"
     rx="44.495411"
     ry="48.85321" />
  <ellipse
     style="fill:#9dbec9;fill-opacity:1;stroke:none;stroke-width:1.03233993"
     id="path5821"
     cx="83.256889"
     cy="99.825691"
     rx="39.220181"
     ry="42.43119" />
  <ellipse
     style="fill:#9dbec9;fill-opacity:1;stroke:none;stroke-width:1.03233993"
     id="path5821-0"
     cx="301.83487"
     cy="99.596329"
     rx="39.220181"
     ry="42.43119" />
  <path
     style="fill:#9dbec9;stroke:none;stroke-width:1px;stroke-linecap:butt;stroke-linejoin:miter;stroke-opacity:1;fill-opacity:1"
     d="m 132.11009,173.44954 c 0,0 -21.64358,26.45833 -25.68807,52.29358 -3.32109,21.21432 -5.04587,64.22018 -5.04587,64.22018 0,0 -31.54774,2.85386 -46.788994,-0.45871 -13.244269,-2.87854 -31.419335,-7.53334 -34.403669,-15.59633 -1.610862,-4.35218 0.368847,-55.1607 4.587155,-73.3945 6.03883,-26.10308 18.365223,-35.69618 35.321101,-43.57798 14.284357,-6.63996 38.156706,-2.34322 47.247707,0.91743 12.16417,4.36289 24.77064,15.59633 24.77064,15.59633 z"
     id="path5838"
     inkscape:connector-curvature="0"
     sodipodi:nodetypes="cscsssssc" />
  <path
     style="fill:#9dbec9;fill-opacity:1;stroke:none;stroke-width:1px;stroke-linecap:butt;stroke-linejoin:miter;stroke-opacity:1"
     d="m 253.84927,172.78791 c 0,0 21.64358,26.45833 25.68807,52.29358 3.32109,21.21432 5.04587,64.22018 5.04587,64.22018 0,0 31.54774,2.85386 46.789,-0.45871 13.24427,-2.87854 31.41933,-7.53334 34.40366,-15.59633 1.61087,-4.35218 -0.36884,-55.1607 -4.58715,-73.3945 -6.03883,-26.10308 -18.36522,-35.69618 -35.3211,-43.57798 -14.28436,-6.63996 -38.15671,-2.34322 -47.24771,0.91743 -12.16417,4.36289 -24.77064,15.59633 -24.77064,15.59633 z"
     id="path5838-1"
     inkscape:connector-curvature="0"
     sodipodi:nodetypes="cscsssssc" />
  <path
     style="fill:#305f82;stroke:none;stroke-width:1px;stroke-linecap:butt;stroke-linejoin:miter;stroke-opacity:1;fill-opacity:1"
     d="m 191.74312,167.48624 c 21.26686,-0.17323 43.7877,8.70935 55.9633,26.14678 10.96757,15.70732 16.49746,48.19547 18.80734,72.93579 0.93129,9.97471 2.62296,37.20752 0.45872,42.20183 -6.26589,14.45948 -54.68215,18.06546 -79.81652,18.34863 -24.46805,0.27566 -67.90873,-4.22073 -69.26605,-24.31193 0,0 0.64822,-27.25517 1.83486,-40.82568 1.68907,-19.31639 3.72774,-50.72396 18.34863,-68.80735 12.94127,-16.00601 33.08718,-25.52042 53.66972,-25.68807 z"
     id="path6398"
     inkscape:connector-curvature="0"
     sodipodi:nodetypes="sssssssss" />
</svg>
